<?xml version="1.0" encoding="utf-8"?>
<svg width="536px" height="211px" viewBox="0 0 536 211" version="1.1" xmlns:xlink="http://www.w3.org/1999/xlink" xmlns="http://www.w3.org/2000/svg">
  <desc>Created with Lunacy</desc>
  <g id="Photogram" fill="#212121">
    <path d="M64.744 72.5381Q65.608 72.3941 69.424 72.3941Q73.24 72.3941 78.64 73.7621Q84.04 75.1301 89.152 78.2261Q94.264 81.3221 97.36 87.2981Q100.456 93.2741 100.456 101.482Q100.456 115.018 89.944 123.37Q79.432 131.722 62.152 131.722Q62.152 159.802 52.216 159.802Q45.592 159.802 45.592 154.186Q45.592 152.458 47.32 149.434Q49.048 146.41 49.768 142.522Q50.488 138.634 50.92 129.994Q45.016 128.122 45.016 124.81Q45.016 121.498 48.04 121.498Q49.624 121.498 51.208 121.93Q53.08 83.4821 53.8 79.4501Q45.592 81.4661 40.192 86.0741Q34.792 90.6821 34.792 97.0181Q34.792 100.618 33.28 102.634Q31.768 104.65 29.464 104.65Q25.144 104.65 25.144 99.7541Q25.144 90.1061 33.712 83.1221Q42.28 76.1381 55.096 73.6901Q57.832 64.4741 62.728 64.4741Q64.744 64.4741 64.744 72.5381ZM114.424 148.138L114.568 152.602Q114.568 156.634 112.264 156.634Q108.808 156.634 105.64 155.698Q102.472 154.762 102.472 153.106C102.472 152.002 102.736 148.21 103.264 141.73Q104.056 132.01 104.056 127.114L104.056 118.762Q104.056 81.8981 117.16 71.8181Q120.184 69.5141 123.352 69.5141Q124.792 69.5141 126.232 72.6821Q127.672 75.85 127.672 80.8901Q127.672 93.2741 123.496 104.074Q119.32 114.874 115 120.634Q114.856 124.234 114.856 131.866Q115.432 131.002 120.904 122.074Q126.376 113.146 130.192 108.97Q134.008 104.794 137.032 104.794Q140.056 104.794 142.432 106.81Q144.808 108.826 144.808 111.85Q144.808 118.186 143.44 130.498Q142.072 142.81 142.072 146.05Q142.072 149.075 142.825 149.276Q142.879 149.29 142.936 149.29Q145.384 149.146 149.704 143.17Q152.819 138.861 155.896 132.794Q155.899 123.222 161.584 114.73Q167.272 106.234 176.2 106.234Q180.232 103.354 185.776 103.354Q191.32 103.354 196.072 109.258Q200.824 115.162 200.968 124.666Q206.728 122.794 208.96 121.426Q210.926 120.221 212.055 119.518Q212.376 115.941 212.776 111.994Q205.576 110.554 205.144 106.09Q205.144 103.786 208.168 103.786Q211.192 103.786 213.496 104.938Q214.792 94.5701 216.52 83.9141Q216.952 81.1781 219.256 78.7301Q221.56 76.2821 223.72 76.2821Q225.592 76.2821 225.592 82.1861Q225.592 84.9221 223.576 107.386Q227.464 106.666 232.144 104.506Q236.824 102.346 237.688 102.346Q240.28 102.346 240.28 103.93Q240.424 105.37 234.952 107.89Q229.48 110.41 223.144 111.706Q221.416 132.73 221.416 143.53Q221.416 149.29 223.144 149.29Q225.736 149.146 230.056 143.242Q233.716 138.24 237.325 130.704Q237.883 122.29 242.944 114.73Q248.632 106.234 257.56 106.234Q261.592 103.354 267.136 103.354Q272.68 103.354 277.432 109.258Q282.184 115.162 282.328 124.666Q288.088 122.794 290.32 121.426Q291.617 120.631 292.55 120.054Q294.015 116.733 296.224 113.722Q302.776 104.794 313.432 104.794Q315.592 104.794 318.616 106.594Q321.64 108.394 323.944 110.986Q324.376 109.546 328.12 106.45Q331.864 103.354 333.952 103.354Q336.04 103.354 336.04 109.546Q336.04 115.738 333.448 120.49Q332.008 130.138 331.864 138.346Q345.976 120.49 346.912 119.482Q347.028 119.357 347.14 119.248Q345.868 118.194 344.968 116.746C343.816 114.922 343.24 112.858 343.24 110.554C343.24 108.25 343.72 106.234 344.68 104.506Q346.12 101.914 348.784 101.914Q351.448 101.914 353.68 104.722Q355.912 107.53 355.912 110.986Q355.912 114.442 353.896 117.898Q354.472 118.33 355.768 118.33L363.688 117.466Q364.84 117.466 365.704 118.762Q366.568 120.058 366.568 121.498Q366.568 122.938 365.632 131.29Q364.696 139.642 364.696 144.466Q364.696 149.29 365.56 149.29Q368.008 149.146 372.328 143.17Q376.342 137.617 380.294 129.142Q381.44 120.634 386.512 113.722Q393.064 104.794 403.72 104.794Q408.328 104.794 414.088 110.842Q415.24 109.258 418.192 107.026Q421.144 104.794 423.232 104.794Q425.32 104.794 425.32 110.266Q425.32 111.706 424.528 115.882Q423.736 120.058 422.728 121.93Q421.432 125.242 421.432 145.402Q421.432 149.29 422.296 149.29Q424.744 149.146 429.064 143.17Q432.882 137.889 436.643 129.965Q436.696 128.379 436.696 127.114L436.696 118.618Q436.696 111.706 438.136 110.266Q439.576 108.826 443.248 106.09Q446.92 103.354 448.576 103.354Q450.232 103.354 450.664 103.93Q451.096 104.506 451.096 106.09Q451.096 113.722 448.216 120.49Q447.496 128.698 447.496 131.866Q455.128 117.61 458.152 113.146Q463.48 104.794 467.8 104.794Q470.536 104.794 472.912 106.954Q475.288 109.114 475.288 112.282Q475.288 115.45 475.216 118.258Q475.144 121.066 475 122.65Q474.856 124.234 474.856 124.666Q475.432 123.514 479.752 118.186Q484.072 112.858 485.584 111.274Q487.096 109.69 488.824 108.106Q492.136 104.794 494.8 104.794Q497.464 104.794 499.84 106.81Q502.216 108.826 502.216 111.85Q502.216 118.186 500.848 130.498Q499.48 142.81 499.48 146.05Q499.48 149.29 500.344 149.29Q502.792 149.146 507.112 143.17Q511.432 137.194 515.68 127.834Q519.928 118.474 520.864 118.474Q521.8 118.474 521.8 119.626Q521.8 123.658 517.624 132.442C510.04 148.57 503.656 156.634 498.472 156.634Q493.576 156.634 490.696 154.33Q489.688 153.322 489.688 149.074Q489.688 144.826 490.48 135.25Q491.272 125.674 491.272 120.922Q491.272 116.17 489.688 116.17Q487.816 116.17 481.552 122.506Q475.288 128.842 474.856 131.434Q473.992 136.33 473.992 152.602Q473.992 156.634 471.832 156.634Q468.52 156.634 465.568 155.698Q462.616 154.762 462.616 153.106Q462.616 151.45 463.48 138.922Q464.344 126.394 464.344 121.282Q464.344 116.17 462.688 116.17Q461.032 116.17 454.696 126.034Q448.36 135.898 447.712 139.786Q447.064 143.674 447.064 148.138L447.208 152.602Q447.208 156.634 444.904 156.634Q441.448 156.634 438.28 155.698Q435.112 154.762 435.112 153.106C435.112 152.002 435.376 148.21 435.904 141.73Q435.999 140.56 436.083 139.46C430.012 150.909 424.792 156.634 420.424 156.634Q414.808 156.634 411.928 154.33Q410.92 153.322 410.92 149.218Q410.92 145.114 411.208 138.202Q407.464 147.562 403.792 152.098Q400.12 156.634 394.36 156.634Q388.6 156.634 384.28 151.234Q380.702 146.762 380.088 138.044C373.699 150.437 368.232 156.634 363.688 156.634Q358.072 156.634 355.192 154.33Q354.184 153.322 354.184 141.802Q354.184 130.282 356.632 122.074Q352.672 122.074 349.844 120.876Q349.701 121.315 349.432 121.786Q344.824 128.554 331.288 145.546Q330.424 162.682 330.136 168.874Q329.416 187.162 325.024 194.578Q320.632 201.994 309.4 201.994Q304.504 201.994 300.256 199.042Q296.008 196.09 296.008 188.818Q296.008 181.546 301.552 173.914Q307.096 166.282 321.784 150.442L322.648 133.882Q318.184 145.69 314.368 151.162Q310.552 156.634 304.36 156.634Q298.168 156.634 293.92 151.306Q289.672 145.978 289.672 134.314Q289.672 129.65 290.72 125.423Q287.03 127.666 282.184 129.562Q281.176 141.658 274.552 149.146Q267.928 156.634 255.688 156.634Q246.76 156.634 242.008 149.506Q238.675 144.507 237.68 138.304Q228.175 156.634 221.344 156.634Q213.496 156.634 212.128 154.762Q210.76 152.89 210.76 142.378Q210.76 135.274 211.681 123.897Q207.277 127.037 200.824 129.562Q199.816 141.658 193.192 149.146Q186.568 156.634 174.328 156.634Q165.4 156.634 160.648 149.506Q157.702 145.086 156.582 139.725Q147.565 156.634 141.064 156.634Q135.448 156.634 132.568 154.33Q131.56 153.322 131.56 149.074Q131.56 144.826 132.352 135.25Q133.144 125.674 133.144 120.922Q133.144 116.17 131.488 116.17Q129.832 116.17 122.776 126.034Q115.72 135.898 115.288 138.634Q114.424 143.674 114.424 148.138ZM123.784 84.0581Q123.784 78.0101 122.2 78.0101Q119.608 78.0101 117.16 93.9941Q115.864 102.49 115.288 113.722Q123.784 96.0101 123.784 84.0581ZM89.656 105.514Q89.656 92.5541 82.24 85.7141Q74.824 78.8741 64.312 78.4421Q62.152 103.93 62.152 126.394Q64.168 126.682 65.32 126.682Q77.416 126.682 83.536 120.49Q89.656 114.298 89.656 105.514ZM179.08 110.194Q180.376 108.106 182.68 108.106Q187.288 108.106 189.376 113.866Q191.464 119.626 191.752 126.682L190.024 126.682Q185.128 126.682 181.456 123.37Q177.784 120.058 177.784 114.73Q177.784 112.282 179.08 110.194ZM260.44 110.194Q261.736 108.106 264.04 108.106Q268.648 108.106 270.736 113.866Q272.824 119.626 273.112 126.682L271.384 126.682Q266.488 126.682 262.816 123.37Q259.144 120.058 259.144 114.73Q259.144 112.282 260.44 110.194ZM312.568 109.978Q308.536 109.978 304 116.242Q299.464 122.506 299.464 130.642Q299.464 138.778 301.84 143.89Q304.216 149.002 307.816 149.002Q311.416 149.002 314.728 143.098Q318.04 137.194 323.224 122.794Q323.512 117.898 323.512 116.602Q322.36 114.442 318.76 112.21Q315.16 109.978 312.568 109.978ZM402.856 110.554Q398.824 110.554 394.288 116.53Q389.752 122.506 389.752 130.57Q389.752 138.634 392.128 143.818Q394.504 149.002 398.392 149.002Q403.144 149.002 412.36 125.242Q412.504 124.09 412.72 121.282Q412.936 118.474 413.08 117.034Q411.784 114.73 408.544 112.642Q405.304 110.554 402.856 110.554ZM186.424 132.298L191.608 132.01Q191.032 139.642 187.576 144.898Q184.12 150.154 177.928 150.154Q171.736 150.154 168.856 143.89Q165.976 137.626 165.976 130.714Q165.976 116.314 172.168 111.418Q170.584 114.874 170.584 119.626Q170.584 124.378 175.192 128.338Q179.8 132.298 186.424 132.298ZM267.784 132.298L272.968 132.01Q272.392 139.642 268.936 144.898Q265.48 150.154 259.288 150.154Q253.096 150.154 250.216 143.89Q247.336 137.626 247.336 130.714Q247.336 116.314 253.528 111.418Q251.944 114.874 251.944 119.626Q251.944 124.378 256.552 128.338Q261.16 132.298 267.784 132.298ZM321.352 157.21Q304.936 174.922 304.936 185.578Q304.936 190.474 306.664 193.642Q308.392 196.81 311.416 196.81Q316.024 196.81 317.896 191.77Q319.768 186.73 320.632 171.322L321.352 157.21Z" />
  </g>
</svg>